<?xml version="1.0" encoding="utf-8"?>
<svg width="1024" height="1024" viewBox="0 0 1024 1024" version="1.1" xmlns="http://www.w3.org/2000/svg" xmlns:bx="https://boxy-svg.com">
        <defs>
                <bx:grid x="0" y="0" width="16" height="16"/>
        </defs>
        <desc>cuboid-character.blend, (Blender 4.1.0)</desc>
        <g style="filter: none;">
                <title>uv-map</title>
                <polygon points="1024.000,0.000 921.600,0.000 921.600,102.400 1024.000,102.400 " style="fill-opacity: 0; stroke-width: 8px;">
                        <title>ground-ring</title>
                </polygon>
                <polygon points="819.200,0.000 716.800,0.000 716.800,102.400 819.200,102.400 " style="fill-opacity: 0.25; fill: none;">
                        <title>ground-shadow</title>
                </polygon>
                <polygon points="160 320 0 320 0 160 160 160" style="stroke: rgb(255, 255, 255); stroke-width: 12px; fill: rgb(136, 136, 136);">
                        <title>head-top</title>
                </polygon>
                <polygon points="320 320.000031 160.000015 320.000031 160.000015 160.000031 320 160.000031" style="stroke: rgb(255, 255, 255); stroke-width: 12px;">
                        <title>head-bottom</title>
                </polygon>
                <polygon points="0 480.000031 0 320.000031 160 320.000031 160 480.000031" style="stroke: rgb(255, 255, 255); stroke-width: 12px;">
                        <title>head-left</title>
                </polygon>
                <polygon points="320 320 320 480.000031 160 480.000031 160 320" style="stroke: rgb(255, 255, 255); stroke-width: 12px;">
                        <title>head-right</title>
                </polygon>
                <polygon points="160 640.000031 0 640.000031 0 480 160 480" style="stroke: rgb(255, 255, 255); stroke-width: 12px;">
                        <title>head-front</title>
                </polygon>
                <polygon points="320 640.000031 160.000015 640.000031 160.000015 480 320 480" style="stroke: rgb(255, 255, 255); fill: rgb(170, 170, 170); stroke-width: 12px;">
                        <title>head-back</title>
                </polygon>
                <polygon points="704 560.000031 544 560.000031 544 160.000031 704 160.000031" style="stroke: rgb(255, 255, 255); stroke-width: 12px;">
                        <title>body-front</title>
                </polygon>
                <polygon points="1024 560.000031 864 560.000031 864 160.000031 1024 160.000031" style="stroke: rgb(255, 255, 255); stroke-width: 12px;">
                        <title>body-back</title>
                </polygon>
                <polygon points="864 160.000031 864 560.000031 704 560.000031 704 160.000031" style="stroke: rgb(255, 255, 255); stroke-width: 12px;">
                        <title>body-right</title>
                </polygon>
                <polygon points="384 560.000031 384 160.000031 544 160.000031 544 560.000031" style="stroke: rgb(255, 255, 255); stroke-width: 12px;">
                        <title>body-left</title>
                </polygon>
                <polygon points="543.999939 720.000031 383.999969 720.000031 383.999969 560.000031 543.999939 560.000031" style="stroke: rgb(255, 255, 255); stroke-width: 12px;">
                        <title>body-top</title>
                </polygon>
                <polygon points="704 720.000031 544 720.000031 544 560.000031 704 560.000031" style="stroke: rgb(255, 255, 255); stroke-width: 12px;">
                        <title>body-bottom</title>
                </polygon>
                <polygon points="256.000015 0 0 0 0 128 256.000015 128" style="fill-opacity: 0.2; fill: none; stroke-width: 4px; stroke-opacity: 0.25;">
                        <title>ui-label</title>
                </polygon>
                <polygon points="864 720.000183 704 720.000183 704 560.000061 864 560.000061" style="stroke: rgb(0, 0, 0);">
                        <title>front-label-man</title>
                </polygon>
                <polygon points="1024.000122 720.000122 864.000122 720.000122 864.000122 560.000061 1024.000122 560.000061" style="stroke: rgb(255, 255, 255);">
                        <title>front-label-food</title>
                </polygon>
                <polygon points="543.999939 880.000244 384 880.000244 384 720.000183 543.999939 720.000183" style="stroke: rgb(255, 255, 255);">
                        <title>front-label-mask</title>
                </polygon>
                <polygon points="704 880.000244 544 880.000244 544 720.000183 704 720.000183" style="stroke: rgb(255, 255, 255);">
                        <title>front-face-angry</title>
                </polygon>
                <polygon points="864 880.000122 704.000122 880.000122 704.000122 720.000061 864 720.000061" style="stroke: rgb(255, 255, 255);">
                        <title>front-label</title>
                </polygon>
                <polygon points="1024.000122 880.000122 864.000122 880.000122 864.000122 720.000061 1024.000122 720.000061" style="stroke: rgb(255, 255, 255);">
                        <title>front-label</title>
                </polygon>
        </g>
        <g transform="matrix(1, 0, 0, 1, -160, -90)">
                <title>head</title>
                <g>
                        <title>eyes</title>
                        <circle style="stroke: rgb(0, 0, 0); fill: rgb(255, 255, 255);" cx="195.303809" cy="619.496219" r="14.10377">
                                <title>eye</title>
                        </circle>
                        <circle style="stroke: rgb(0, 0, 0); fill: rgb(255, 255, 255);" cx="286.696219" cy="619.496219" r="14.10377">
                                <title>eye</title>
                        </circle>
                </g>
                <g transform="matrix(1.003344535828, 0, 0, 1, 542.193969726563, 267.142333984375)">
                        <title>eyes-angry</title>
                        <circle style="stroke: rgb(0, 0, 0); fill: rgb(255, 255, 255);" cx="195.303802" cy="629.496216" r="14.10377">
                                <title>eye</title>
                        </circle>
                        <circle style="stroke: rgb(0, 0, 0); fill: rgb(255, 255, 255);" cx="286.696228" cy="629.496216" r="14.10377">
                                <title>eye</title>
                        </circle>
                        <rect x="184.748923" y="419.317517" width="33.563195" height="11.590216" style="fill: rgb(216, 216, 216); stroke: rgb(0, 0, 0);" transform="matrix(0.926528565892, 0.376224423166, -0.178050956069, 1.006998506151, 83.310478210449, 92.391891479495)"/>
                        <rect x="184.748905" y="419.317421" width="33.563199" height="11.590206" style="fill: rgb(216, 216, 216); stroke: rgb(0, 0, 0);" transform="matrix(-0.926528575859, 0.376224398621, 0.17805069204, 1.006998607246, 398.697926492178, 92.385476600288)"/>
                </g>
        </g>
        <g>
                <title>selector</title>
                <circle style="fill: none; stroke-width: 2px; stroke: rgb(221, 221, 255);" cx="973.158508" cy="50.841564" r="46.558437"/>
        </g>
        <g style="" transform="matrix(1.073919177055, 0, 0, 1.073919177055, -56.940181732177, -3.599732160568)">
                <title>drop-shadow</title>
                <circle style="stroke-width: 2.79351px; fill-opacity: 0.2; stroke-opacity: 0.5; stroke: rgb(153, 255, 153);" cx="768.158508" cy="50.841564" r="46.558437"/>
                <circle style="stroke-width: 1.86234px; fill-opacity: 0.4; stroke: rgb(255, 255, 255); stroke-opacity: 0.4;" cx="768.158657" cy="49.910404" r="16.761046"/>
        </g>
        <g>
                <title>label</title>
                <text style="fill: rgb(255, 255, 221); font-family: &quot;American Typewriter&quot;; font-size: 32px; white-space: pre; transform-box: fill-box;" x="8.2641" y="73.396797"><title>label-text</title>Foo bar baz qux</text>
        </g>
        <g transform="matrix(10.304659843445, 0, 0, 10.322573661804, 1094.99462890625, 372.301391601563)" style="">
                <title>front-labels</title>
                <path d="M -30.179998 19.733334 C -29.497998 19.733334 -28.939998 20.291333 -28.939998 20.973334 C -28.939998 21.655334 -29.497998 22.213334 -30.179998 22.213334 C -30.861999 22.213334 -31.419999 21.655334 -31.419999 20.973334 C -31.419999 20.291333 -30.861999 19.733334 -30.179998 19.733334 Z M -24.599998 24.073333 L -28.319998 24.073333 L -28.319998 32.133334 L -29.559998 32.133334 L -29.559998 28.413334 L -30.799998 28.413334 L -30.799998 32.133334 L -32.039998 32.133334 L -32.039998 24.073333 L -35.759998 24.073333 L -35.759998 22.833333 L -24.599998 22.833333 L -24.599998 24.073333 Z" style="fill: rgb(255, 255, 255); transform-origin: -30.18px 22.3708px; stroke-width: 0.387837px;"/>
        </g>
        <g transform="matrix(4.934043884277, 0, 0, 4.934043884277, 884.791625976563, 586.959106445313)" style="">
                <path d="M 8.203573 1.970762 C 8.203573 1.446584 7.778638 1.021655 7.254466 1.021655 C 6.730293 1.021655 6.305359 1.446584 6.305359 1.970762 L 6.305359 2.919869 C 6.305359 2.926379 6.305758 2.932066 6.306127 2.937361 C 6.309013 2.978647 6.310257 2.996396 6.108789 3.197852 L 6.089694 3.21692 C 5.836491 3.469515 5.356253 3.948615 5.356253 4.818083 L 5.356253 5.76719 C 5.356253 6.291362 5.781186 6.716295 6.305359 6.716295 C 6.829531 6.716295 7.254466 6.291362 7.254466 5.76719 L 7.254466 4.818083 C 7.254466 4.811571 7.254067 4.805886 7.253697 4.80059 C 7.250812 4.759304 7.249569 4.741556 7.451035 4.540098 L 7.470132 4.52103 C 7.723335 4.268435 8.203573 3.789336 8.203573 2.919869 L 8.203573 1.970762 Z M 2.508932 9.089062 C 2.508932 8.56488 2.933867 8.139955 3.458039 8.139955 L 20.541959 8.139955 C 21.066151 8.139955 21.491066 8.56489 21.491066 9.089062 L 21.491066 10.038169 C 21.491066 13.930076 19.14848 17.274918 15.796426 18.739485 L 15.796426 19.529236 C 15.796426 20.053427 15.371511 20.478343 14.84732 20.478343 L 9.152678 20.478343 C 8.628507 20.478343 8.203573 20.053427 8.203573 19.529236 L 8.203573 18.739485 C 4.851509 17.274918 2.508932 13.930076 2.508932 10.038169 L 2.508932 9.089062 Z M 17.694639 1.021655 C 18.21883 1.021655 18.643745 1.446584 18.643745 1.970762 L 18.643745 2.919869 C 18.643745 3.789336 18.163498 4.268435 17.910276 4.52103 L 17.891199 4.540098 C 17.689704 4.741556 17.691033 4.759304 17.69388 4.80059 C 17.694259 4.805886 17.694639 4.811571 17.694639 4.818083 L 17.694639 5.76719 C 17.694639 6.291362 17.269725 6.716295 16.745532 6.716295 C 16.22134 6.716295 15.796426 6.291362 15.796426 5.76719 L 15.796426 4.818083 C 15.796426 3.948615 16.276674 3.469515 16.529895 3.21692 L 16.548972 3.197852 C 16.750468 2.996396 16.749139 2.978647 16.746292 2.937361 C 16.745913 2.932066 16.745532 2.926379 16.745532 2.919869 L 16.745532 1.970762 C 16.745532 1.446584 17.170447 1.021655 17.694639 1.021655 Z M 13.423659 1.970762 C 13.423659 1.446584 12.998744 1.021655 12.474552 1.021655 C 11.950361 1.021655 11.525446 1.446584 11.525446 1.970762 L 11.525446 2.919869 C 11.525446 2.926379 11.525825 2.932066 11.526205 2.937361 C 11.529053 2.978647 11.530381 2.996396 11.328886 3.197852 L 11.309809 3.21692 C 11.056588 3.469515 10.576339 3.948615 10.576339 4.818083 L 10.576339 5.76719 C 10.576339 6.291362 11.001254 6.716295 11.525446 6.716295 C 12.049637 6.716295 12.474552 6.291362 12.474552 5.76719 L 12.474552 4.818083 C 12.474552 4.811571 12.474173 4.805886 12.473793 4.80059 C 12.470946 4.759304 12.469617 4.741556 12.671112 4.540098 L 12.690189 4.52103 C 12.94341 4.268435 13.423659 3.789336 13.423659 2.919869 L 13.423659 1.970762 Z" style="fill: rgb(255, 255, 255);"/>
        </g>
        <g transform="matrix(6.950300216675, 0, 0, 6.950300216675, 380.596374511719, 716.596618652344)" style="">
                <path d="M 12.000001 5.093793 C 15.432801 5.093793 18.215589 7.876608 18.215589 11.30938 C 18.215589 12.830887 17.668893 14.224698 16.76121 15.305174 C 17.627939 15.878251 18.165518 16.610171 18.212274 17.411015 L 18.215589 17.524968 L 12.000001 18.906209 L 5.784413 17.524968 L 5.787735 17.411015 C 5.834483 16.61024 6.371966 15.878389 7.238543 15.305243 C 6.331344 14.225319 5.784413 12.831232 5.784413 11.30938 C 5.784413 7.876608 8.567229 5.093793 12.000001 5.093793 Z M 12.000001 12.690622 C 11.046461 12.690622 10.273449 13.154443 10.273449 13.726553 C 10.273449 14.298663 11.046461 14.762484 12.000001 14.762484 C 12.953541 14.762484 13.726553 14.298663 13.726553 13.726553 C 13.726553 13.154443 12.953541 12.690622 12.000001 12.690622 Z M 9.928138 9.237518 C 9.165299 9.237518 8.546897 9.701318 8.546897 10.273449 C 8.546897 10.845559 9.165299 11.30938 9.928138 11.30938 C 10.690998 11.30938 11.30938 10.845559 11.30938 10.273449 C 11.30938 9.701318 10.690998 9.237518 9.928138 9.237518 Z M 14.071863 9.237518 C 13.309004 9.237518 12.690622 9.701318 12.690622 10.273449 C 12.690622 10.845559 13.309004 11.30938 14.071863 11.30938 C 14.834723 11.30938 15.453105 10.845559 15.453105 10.273449 C 15.453105 9.701318 14.834723 9.237518 14.071863 9.237518 Z" style="fill: rgb(255, 255, 255);"/>
        </g>
</svg>