<?xml version="1.0" encoding="utf-8"?>
<svg xmlns="http://www.w3.org/2000/svg" xmlns:bx="https://boxy-svg.com" width="2048" height="2048" viewBox="0 0 2048 2048">
  <defs>
    <bx:grid x="0" y="0" width="16" height="16"/>
    <filter id="duotone-filter-0" bx:preset="duotone 1 #4fa2cd #02477b 1" color-interpolation-filters="sRGB" x="-50%" y="-50%" width="200%" height="200%">
      <feColorMatrix type="matrix" result="grayscale" values="1 0 0 0 0 1 0 0 0 0 1 0 0 0 0 0 0 0 1 0"/>
      <feComponentTransfer color-interpolation-filters="sRGB">
        <feFuncR type="gamma" exponent="1.5" amplitude="1" offset="0"/>
        <feFuncG type="gamma" exponent="1.5" amplitude="1" offset="0"/>
        <feFuncB type="gamma" exponent="1.5" amplitude="1" offset="0"/>
      </feComponentTransfer>
      <feComponentTransfer color-interpolation-filters="sRGB" result="duotone">
        <feFuncR type="table" tableValues="0.31 0.008"/>
        <feFuncG type="table" tableValues="0.635 0.278"/>
        <feFuncB type="table" tableValues="0.804 0.482"/>
        <feFuncA type="table" tableValues="0 1"/>
      </feComponentTransfer>
    </filter>
    <filter id="point-light-filter-0" bx:preset="point-light 1 0.375 0.5 0.5 51 2 0.2 0.1 #ffffff" primitiveUnits="objectBoundingBox" color-interpolation-filters="sRGB" x="-50%" y="-50%" width="200%" height="200%">
      <feSpecularLighting result="specular-lighting" lighting-color="#ffffff" specularConstant="2" specularExponent="51">
        <fePointLight x="0.375" y="0.5" z="0.5"/>
      </feSpecularLighting>
      <feDiffuseLighting result="diffuse-lighting" lighting-color="#ffffff" diffuseConstant="0.2">
        <fePointLight x="0.375" y="0.5" z="0.5"/>
      </feDiffuseLighting>
      <feMerge result="lighting">
        <feMergeNode in="diffuse-lighting"/>
        <feMergeNode in="specular-lighting"/>
      </feMerge>
      <feComposite in="SourceGraphic" in2="lighting" operator="arithmetic" k1="1" k2="0.1" k3="0" k4="0"/>
    </filter>
  </defs>
  <g style="">
    <title>uv-map</title>
    <g>
      <title>base_head</title>
      <rect width="128" height="128" style="stroke: rgb(255, 255, 255); stroke-width: 12px;" x="512">
        <title>front</title>
      </rect>
      <rect width="128" height="128" style="stroke: rgb(255, 255, 255); stroke-width: 12px; fill: rgb(170, 170, 170);" x="640">
        <title>back</title>
      </rect>
      <rect width="128" height="128" style="stroke: rgb(255, 255, 255); stroke-width: 12px;" y="128" x="512">
        <title>left</title>
      </rect>
      <rect width="128" height="128" style="stroke: rgb(255, 255, 255); stroke-width: 12px;" x="640" y="128">
        <title>right</title>
      </rect>
      <rect width="128" height="128" style="stroke: rgb(255, 255, 255); stroke-width: 12px; fill: rgb(170, 170, 170);" x="512" y="256">
        <title>top</title>
      </rect>
      <rect width="128" height="128" style="stroke: rgb(255, 255, 255); stroke-width: 12px;" x="640" y="256">
        <title>bottom</title>
      </rect>
    </g>
    <g>
      <title>base_body</title>
      <rect width="128" height="128" style="stroke: rgb(255, 255, 255); stroke-width: 12px;" x="128">
        <title>top</title>
      </rect>
      <rect width="128" height="128" style="stroke: rgb(255, 255, 255); stroke-width: 12px;" x="256">
        <title>bottom</title>
      </rect>
      <rect width="128" height="256" style="stroke: rgb(255, 255, 255); stroke-width: 12px;" y="128">
        <title>left</title>
      </rect>
      <rect width="128" height="256" style="stroke : rgb(255, 255, 255); stroke-width : 12px; alignment-baseline : initial;" y="128" x="128">
        <title>front</title>
      </rect>
      <rect width="128" height="256" style="stroke: rgb(255, 255, 255); stroke-width: 12px;" y="128" x="256">
        <title>right</title>
      </rect>
      <rect width="128" height="256" style="stroke: rgb(255, 255, 255); stroke-width: 12px;" y="128" x="384">
        <title>back</title>
      </rect>
    </g>
    <g>
      <title>base_head-overlay</title>
      <rect width="128" height="128" style="stroke: rgb(0, 0, 0); fill: none;" x="512" y="416">
        <title>front</title>
      </rect>
      <g transform="matrix(1, 0, 0, 1, 350.829986572266, -153.599975585937)">
        <title>eyes</title>
        <circle style="stroke: rgb(0, 0, 0); fill: rgb(255, 255, 255);" cx="193.17" cy="617.6" r="12">
          <title>_left</title>
        </circle>
        <circle style="stroke: rgb(0, 0, 0); fill: rgb(255, 255, 255);" cx="257.17" cy="617.6" r="12">
          <title>_right</title>
        </circle>
      </g>
      <rect width="128" height="128" style="fill: none; stroke: rgb(0, 0, 0);" x="640" y="416">
        <title>back</title>
      </rect>
      <rect width="128" height="128" style="fill: none; stroke: rgb(0, 0, 0);" y="544" x="512">
        <title>left</title>
      </rect>
      <rect width="128" height="128" style="fill: none; stroke: rgb(0, 0, 0);" x="640" y="544">
        <title>right</title>
      </rect>
      <rect width="128" height="128" style="fill: none; stroke: rgb(0, 0, 0);" x="512" y="672">
        <title>top</title>
      </rect>
      <rect width="128" height="128" style="fill: none; stroke: rgb(0, 0, 0);" x="640" y="672">
        <title>bottom</title>
      </rect>
    </g>
    <g>
      <title>base_body-overlay</title>
      <rect width="128" height="128" style="fill: none; stroke: rgb(0, 0, 0);" x="128" y="416">
        <title>top</title>
      </rect>
      <rect width="128" height="128" style="fill: none; stroke: rgb(0, 0, 0);" x="256" y="416">
        <title>bottom</title>
      </rect>
      <rect width="128" height="256" style="fill: none; stroke: rgb(0, 0, 0);" y="544">
        <title>left</title>
      </rect>
      <rect width="128" height="256" style="fill: none; stroke: rgb(0, 0, 0); transform-origin: 192px 672px;" y="544" x="128">
        <title>front</title>
      </rect>
      <path d="M 192 592 C 197.866 592 202.666 597.76 202.666 604.799 C 202.666 611.84 197.866 617.6 192 617.6 C 186.134 617.6 181.334 611.84 181.334 604.799 C 181.334 597.76 186.134 592 192 592 Z M 240 636.8 L 208 636.8 L 208 720 L 197.333 720 L 197.333 681.6 L 186.667 681.6 L 186.667 720 L 176.001 720 L 176.001 636.8 L 144 636.8 L 144 624 L 240 624 L 240 636.8 Z" style="fill: rgb(255, 255, 255); stroke-width: 0.387837px; transform-origin: 192px 619.226px;">
        <title>_demo-icon</title>
      </path>
      <rect width="128" height="256" style="fill: none; stroke: rgb(0, 0, 0);" y="544" x="256">
        <title>right</title>
      </rect>
      <rect width="128" height="256" style="fill: none; stroke: rgb(0, 0, 0);" y="544" x="384">
        <title>back</title>
      </rect>
      <path d="M 448 592 C 453.866 592 458.666 597.76 458.666 604.799 C 458.666 611.84 453.866 617.6 448 617.6 C 442.134 617.6 437.334 611.84 437.334 604.799 C 437.334 597.76 442.134 592 448 592 Z M 496 636.8 L 464 636.8 L 464 720 L 453.333 720 L 453.333 681.6 L 442.667 681.6 L 442.667 720 L 432.001 720 L 432.001 636.8 L 400 636.8 L 400 624 L 496 624 L 496 636.8 Z" style="fill: rgb(255, 255, 255); stroke-width: 0.387837px; transform-origin: 448px 619.226px;">
        <title>_demo-icon</title>
      </path>
    </g>
    <rect width="128" height="128" style="fill: none;" x="128" y="800">
      <title>default_selector</title>
    </rect>
    <circle style="fill: none; stroke-width: 2px; stroke: rgb(221, 221, 255);" cx="191.999" cy="863.999" r="61.999">
      <title>_default_selector</title>
    </circle>
    <rect width="128" height="128" style="fill: none;" x="384" y="800">
      <title>default_breath</title>
    </rect>
    <circle style="stroke-width: 2.79351px; fill-opacity: 0.2; stroke-opacity: 0.5; stroke: rgb(153, 255, 153);" cx="448" cy="864" r="62">
      <title>_outer_default-breath</title>
    </circle>
    <circle style="stroke-width: 1.86234px; fill-opacity: 0.4; stroke: rgb(255, 255, 255); stroke-opacity: 0.4;" cx="23.04" cy="862.72" r="23.04">
      <title>_inner_default-breath</title>
    </circle>
    <rect width="128" height="128" style="fill: none; stroke: rgb(255, 255, 255); stroke-opacity: 0;" x="640" y="800">
      <title>default_label</title>
    </rect>
    <g>
      <title>confused_head-overlay</title>
      <rect width="128" height="128" style="stroke: rgb(0, 0, 0); fill: none;" x="640" y="800">
        <title>front</title>
      </rect>
      <g transform="matrix(1, 0, 0, 1, 478.83, 230.4)">
        <title>eyes</title>
        <circle style="stroke: rgb(0, 0, 0); fill: rgb(255, 255, 255);" cx="193.17" cy="617.6" r="12">
          <title>_left</title>
        </circle>
        <circle style="stroke: rgb(0, 0, 0); fill: rgb(255, 255, 255);" cx="257.17" cy="617.6" r="16">
          <title>_right</title>
        </circle>
      </g>
    </g>
    <g>
      <title>small-eyes_head-overlay</title>
      <rect width="128" height="128" style="stroke: rgb(0, 0, 0); fill: none;" x="512" y="800">
        <title>front</title>
      </rect>
      <g transform="matrix(1, 0, 0, 1, 350.83, 230.4)">
        <title>eyes</title>
        <circle style="stroke: rgb(0, 0, 0); fill: rgb(255, 255, 255);" cx="193.17" cy="617.6" r="8">
          <title>_left</title>
        </circle>
        <circle style="stroke: rgb(0, 0, 0); fill: rgb(255, 255, 255);" cx="257.17" cy="617.6" r="8">
          <title>_right</title>
        </circle>
      </g>
    </g>
    <g style="filter: url(&quot;#duotone-filter-0&quot;) url(&quot;#point-light-filter-0&quot;);">
      <title>test-body_body</title>
      <rect width="128" height="128" style="stroke: rgb(255, 255, 255); stroke-width: 12px;" x="928">
        <title>top</title>
      </rect>
      <rect width="128" height="128" style="stroke: rgb(255, 255, 255); stroke-width: 12px;" x="1056">
        <title>bottom</title>
      </rect>
      <rect width="128" height="256" style="stroke: rgb(255, 255, 255); stroke-width: 12px;" y="128" x="800">
        <title>left</title>
      </rect>
      <rect width="128" height="256" style="stroke : rgb(255, 255, 255); stroke-width : 12px; alignment-baseline : initial;" y="128" x="928">
        <title>front</title>
      </rect>
      <rect width="128" height="256" style="stroke: rgb(255, 255, 255); stroke-width: 12px;" y="128" x="1056">
        <title>right</title>
      </rect>
      <rect width="128" height="256" style="stroke: rgb(255, 255, 255); stroke-width: 12px;" y="128" x="1184">
        <title>back</title>
      </rect>
      <rect width="96" height="96" style="stroke: rgb(255, 255, 255); alignment-baseline: initial; stroke-width: 4px;" y="144" x="944">
        <title>_front</title>
      </rect>
      <rect width="96" height="96" style="stroke: rgb(255, 255, 255); alignment-baseline: initial; stroke-width: 4px;" y="272" x="944">
        <title>_front</title>
      </rect>
    </g>
    <g>
      <title>test-body-overlay_body-overlay</title>
      <rect width="128" height="128" style="stroke: rgb(0, 0, 0); fill-opacity: 0.3; fill: none;" x="928" y="416">
        <title>top</title>
      </rect>
      <rect width="128" height="128" style="stroke: rgb(0, 0, 0); fill-opacity: 0.3; fill: none;" x="1056" y="416">
        <title>bottom</title>
      </rect>
      <rect width="128" height="256" style="stroke: rgb(0, 0, 0); fill-opacity: 0.3; fill: none;" y="544" x="800">
        <title>left</title>
      </rect>
      <rect width="128" height="256" style="stroke: rgb(0, 0, 0); transform-origin: 992px 672px; fill-opacity: 0.3; fill: none;" y="544" x="928">
        <title>front</title>
      </rect>
      <rect width="128" height="256" style="stroke: rgb(0, 0, 0); fill-opacity: 0.3; fill: none;" y="544" x="1056">
        <title>right</title>
      </rect>
      <rect width="128" height="256" style="stroke: rgb(0, 0, 0); fill-opacity: 0.3; fill: none;" y="544" x="1184">
        <title>back</title>
      </rect>
      <path d="M 1053.99 591.998 C 1037.13 591.998 1021.38 588.549 1008 582.568 L 1008 610.061 C 1019.92 618.675 1036.36 623.997 1054.49 623.997 C 1074.22 623.997 1091.91 617.711 1104 607.746 L 1104 580.671 C 1089.8 587.814 1072.57 591.998 1053.99 591.998 Z M 992 482.582 C 1007.9 471.096 1029.81 464 1053.99 464 C 1080.29 464 1103.88 472.381 1120 485.668 L 1120 618.327 C 1103.88 631.615 1080.29 639.996 1053.99 639.996 C 1029.81 639.996 1007.9 632.9 992 621.414 L 992 482.582 Z M 1104 496.252 C 1091.91 486.286 1074.22 480.001 1054.49 480.001 C 1036.36 480.001 1019.92 485.323 1008 493.937 L 1008 521.428 C 1021.38 515.447 1037.13 511.998 1053.99 511.998 C 1072.57 511.998 1089.8 516.182 1104 523.324 L 1104 496.252 Z M 1054.49 575.999 C 1074.22 575.999 1091.91 569.713 1104 559.748 L 1104 544.25 C 1091.91 534.284 1074.22 527.999 1054.49 527.999 C 1036.36 527.999 1019.92 533.321 1008 541.935 L 1008 562.063 C 1019.92 570.677 1036.36 575.999 1054.49 575.999 Z" style="stroke: rgb(0, 0, 0); fill-opacity: 0.3; fill: rgb(255, 0, 0);"/>
    </g>
  </g>
</svg>