<?xml version="1.0" encoding="utf-8"?>
<svg xmlns="http://www.w3.org/2000/svg" xmlns:bx="https://boxy-svg.com" width="2048" height="2048" viewBox="0 0 2048 2048">
  <defs>
    <bx:grid x="0" y="0" width="16" height="16"/>
  </defs>
  <g style="">
    <title>uv-map</title>
    <g>
      <title>base_head</title>
      <rect width="128" height="128" style="stroke: rgb(255, 255, 255); stroke-width: 16px;" x="512">
        <title>front</title>
      </rect>
      <rect width="128" height="128" style="stroke: rgb(255, 255, 255); fill: rgb(102, 102, 102); stroke-width: 16px;" x="640">
        <title>back</title>
      </rect>
      <rect width="128" height="128" style="stroke: rgb(255, 255, 255); stroke-width: 16px;" y="128" x="512">
        <title>left</title>
      </rect>
      <rect width="128" height="128" style="stroke: rgb(255, 255, 255); stroke-width: 16px;" x="640" y="128">
        <title>right</title>
      </rect>
      <rect width="128" height="128" style="stroke: rgb(255, 255, 255); fill: rgb(102, 102, 102); stroke-width: 16px;" x="512" y="256">
        <title>top</title>
      </rect>
      <rect width="128" height="128" style="stroke: rgb(255, 255, 255); stroke-width: 16px;" x="640" y="256">
        <title>bottom</title>
      </rect>
    </g>
    <g>
      <title>base_body</title>
      <rect width="128" height="128" style="stroke: rgb(255, 255, 255); stroke-width: 16px;" x="128">
        <title>top</title>
      </rect>
      <rect width="128" height="128" style="stroke: rgb(255, 255, 255); stroke-width: 16px;" x="256">
        <title>bottom</title>
      </rect>
      <rect width="128" height="256" style="stroke: rgb(255, 255, 255); stroke-width: 16px;" y="128">
        <title>left</title>
      </rect>
      <rect width="128" height="256" style="stroke: rgb(255, 255, 255); alignment-baseline: initial; stroke-width: 16px;" y="128" x="128">
        <title>front</title>
      </rect>
      <rect width="128" height="256" style="stroke: rgb(255, 255, 255); stroke-width: 16px;" y="128" x="256">
        <title>right</title>
      </rect>
      <rect width="128" height="256" style="stroke: rgb(255, 255, 255); stroke-width: 16px;" y="128" x="384">
        <title>back</title>
      </rect>
    </g>
    <g>
      <title>base_head-overlay</title>
      <rect width="128" height="128" style="stroke: rgb(0, 0, 0); fill: none;" x="512" y="416">
        <title>front</title>
      </rect>
      <g transform="matrix(1, 0, 0, 1, 350.829986572266, -153.599975585937)">
        <title>eyes</title>
        <circle style="stroke: rgb(0, 0, 0); fill: rgb(255, 255, 255);" cx="193.17" cy="617.6" r="12">
          <title>_left</title>
        </circle>
        <circle style="stroke: rgb(0, 0, 0); fill: rgb(255, 255, 255);" cx="257.17" cy="617.6" r="12">
          <title>_right</title>
        </circle>
      </g>
      <rect width="128" height="128" style="fill: none; stroke: rgb(0, 0, 0);" x="640" y="416">
        <title>back</title>
      </rect>
      <rect width="128" height="128" style="fill: none; stroke: rgb(0, 0, 0);" y="544" x="512">
        <title>left</title>
      </rect>
      <rect width="128" height="128" style="fill: none; stroke: rgb(0, 0, 0);" x="640" y="544">
        <title>right</title>
      </rect>
      <rect width="128" height="128" style="fill: none; stroke: rgb(0, 0, 0);" x="512" y="672">
        <title>top</title>
      </rect>
      <rect width="128" height="128" style="fill: none; stroke: rgb(0, 0, 0);" x="640" y="672">
        <title>bottom</title>
      </rect>
    </g>
    <g>
      <title>base_body-overlay</title>
      <rect width="128" height="128" style="fill: none; stroke: rgb(0, 0, 0);" x="128" y="416">
        <title>top</title>
      </rect>
      <rect width="128" height="128" style="fill: none; stroke: rgb(0, 0, 0);" x="256" y="416">
        <title>bottom</title>
      </rect>
      <rect width="128" height="256" style="fill: none; stroke: rgb(0, 0, 0);" y="544">
        <title>left</title>
      </rect>
      <rect width="128" height="256" style="fill: none; stroke: rgb(0, 0, 0); transform-origin: 192px 672px;" y="544" x="128">
        <title>front</title>
      </rect>
      <path d="M 192 608 C 195.911 608 199.111 612.32 199.111 617.599 C 199.111 622.88 195.911 627.2 192 627.2 C 188.089 627.2 184.889 622.88 184.889 617.599 C 184.889 612.32 188.089 608 192 608 Z M 224 641.6 L 202.667 641.6 L 202.667 704 L 195.555 704 L 195.555 675.2 L 188.445 675.2 L 188.445 704 L 181.334 704 L 181.334 641.6 L 160 641.6 L 160 632 L 224 632 L 224 641.6 Z" style="fill: rgb(255, 255, 255); stroke-width: 0.387837px; transform-origin: 192px 628.419px;">
        <title>_demo-icon</title>
      </path>
      <rect width="128" height="256" style="fill: none; stroke: rgb(0, 0, 0);" y="544" x="256">
        <title>right</title>
      </rect>
      <rect width="128" height="256" style="fill: none; stroke: rgb(0, 0, 0);" y="544" x="384">
        <title>back</title>
      </rect>
    </g>
    <rect width="128" height="128" style="fill: none;" x="128" y="832">
      <title>default_selector</title>
    </rect>
    <circle style="fill: none; stroke-width: 2px; stroke: rgb(221, 221, 255);" cx="191.999" cy="895.999" r="61.999">
      <title>_default_selector</title>
    </circle>
    <rect width="128" height="128" style="fill: none;" x="384" y="832">
      <title>default_breath</title>
    </rect>
    <circle style="stroke-width: 2.79351px; fill-opacity: 0.2; stroke-opacity: 0.5; stroke: rgb(153, 255, 153);" cx="448" cy="896" r="62">
      <title>_outer_default-breath</title>
    </circle>
    <circle style="stroke-width: 1.86234px; fill-opacity: 0.4; stroke: rgb(255, 255, 255); stroke-opacity: 0.4;" cx="23.04" cy="894.72" r="23.04">
      <title>_inner_default-breath</title>
    </circle>
    <rect width="128" height="32" style="fill: none; stroke: rgb(0, 0, 0);" y="2016">
      <title>default_label</title>
    </rect>
    <text style="fill: rgb(255, 255, 255); font-family: Arial, sans-serif; font-size: 18px; font-weight: 700; white-space: pre;" x="5.428" y="2038.69"><title>_label-test-text</title>label-test-text</text>
    <g>
      <title>confused_head-overlay</title>
      <rect width="128" height="128" style="stroke: rgb(0, 0, 0); fill: none;" x="800" y="832">
        <title>front</title>
      </rect>
      <g transform="matrix(1, 0, 0, 1, 638.83, 262.4)">
        <title>eyes</title>
        <circle style="stroke: rgb(0, 0, 0); fill: rgb(255, 255, 255);" cx="193.17" cy="617.6" r="12">
          <title>_left</title>
        </circle>
        <circle style="stroke: rgb(0, 0, 0); fill: rgb(255, 255, 255);" cx="257.17" cy="617.6" r="16">
          <title>_right</title>
        </circle>
      </g>
    </g>
    <g transform="matrix(1, 0, 0, 1, 0, 32)">
      <title>small-eyes_head-overlay</title>
      <rect width="128" height="128" style="stroke: rgb(0, 0, 0); fill: none;" x="512" y="800">
        <title>front</title>
      </rect>
      <g transform="matrix(1, 0, 0, 1, 350.83, 230.4)">
        <title>eyes</title>
        <circle style="stroke: rgb(0, 0, 0); fill: rgb(255, 255, 255);" cx="193.17" cy="617.6" r="8">
          <title>_left</title>
        </circle>
        <circle style="stroke: rgb(0, 0, 0); fill: rgb(255, 255, 255);" cx="257.17" cy="617.6" r="8">
          <title>_right</title>
        </circle>
      </g>
    </g>
    <g style="filter: none;">
      <title>test-body_body</title>
      <rect width="128" height="128" style="stroke: rgb(255, 255, 255); stroke-width: 12px;" x="928">
        <title>top</title>
      </rect>
      <rect width="128" height="128" style="stroke: rgb(255, 255, 255); stroke-width: 12px;" x="1056">
        <title>bottom</title>
      </rect>
      <rect width="128" height="256" style="stroke: rgb(255, 255, 255); stroke-width: 12px;" y="128" x="800">
        <title>left</title>
      </rect>
      <rect width="128" height="256" style="stroke : rgb(255, 255, 255); stroke-width : 12px; alignment-baseline : initial;" y="128" x="928">
        <title>front</title>
      </rect>
      <rect width="128" height="256" style="stroke: rgb(255, 255, 255); stroke-width: 12px;" y="128" x="1056">
        <title>right</title>
      </rect>
      <rect width="128" height="256" style="stroke: rgb(255, 255, 255); stroke-width: 12px;" y="128" x="1184">
        <title>back</title>
      </rect>
      <rect width="96" height="64" style="stroke: rgb(255, 255, 255); alignment-baseline: initial; stroke-width: 4px; fill: rgb(255, 0, 0); fill-opacity: 0.25;" y="560" x="816">
        <title>_front</title>
      </rect>
      <rect width="96" height="64" style="stroke: rgb(255, 255, 255); alignment-baseline: initial; stroke-width: 4px; fill: rgb(255, 0, 0); fill-opacity: 0.25;" y="560" x="1072">
        <title>_front</title>
      </rect>
    </g>
    <g>
      <title>test-body-overlay_body-overlay</title>
      <rect width="128" height="128" style="stroke: rgb(0, 0, 0); fill-opacity: 0.3; fill: none;" x="928" y="416">
        <title>top</title>
      </rect>
      <rect width="128" height="128" style="stroke: rgb(0, 0, 0); fill-opacity: 0.3; fill: none;" x="1056" y="416">
        <title>bottom</title>
      </rect>
      <rect width="128" height="256" style="stroke: rgb(0, 0, 0); fill-opacity: 0.3; fill: none;" y="544" x="800">
        <title>left</title>
      </rect>
      <rect width="128" height="256" style="stroke: rgb(0, 0, 0); transform-origin: 992px 672px; fill-opacity: 0.3; fill: none;" y="544" x="928">
        <title>front</title>
      </rect>
      <rect width="128" height="256" style="stroke: rgb(0, 0, 0); fill-opacity: 0.3; fill: none;" y="544" x="1056">
        <title>right</title>
      </rect>
      <rect width="128" height="256" style="stroke: rgb(0, 0, 0); fill-opacity: 0.3; fill: none;" y="544" x="1184">
        <title>back</title>
      </rect>
    </g>
    <g transform="matrix(1, 0, 0, 1, -128, 416)">
      <title>robot-icon_body-overlay</title>
      <rect width="128" height="256" style="fill: none; stroke: rgb(0, 0, 0); transform-origin: 192px 672px;" y="544" x="128">
        <title>front</title>
      </rect>
      <g style="filter: none;" transform="matrix(1.29453, 0, 0, 1.29453, 127.089, 583.608)">
        <title>_robot-icon</title>
        <path d="M 50 18.451 C 52.043 18.451 53.694 20.101 53.694 22.145 L 53.694 29.532 L 67.545 29.532 C 72.139 29.532 75.856 33.249 75.856 37.843 L 75.856 69.239 C 75.856 73.834 72.139 77.55 67.545 77.55 L 32.455 77.55 C 27.861 77.55 24.144 73.834 24.144 69.239 L 24.144 37.843 C 24.144 33.249 27.861 29.532 32.455 29.532 L 46.307 29.532 L 46.307 22.145 C 46.307 20.101 47.957 18.451 50 18.451 Z M 61.081 52.618 C 64.635 52.618 66.857 48.77 65.079 45.692 C 64.255 44.264 62.731 43.383 61.081 43.383 C 57.527 43.383 55.306 47.231 57.082 50.309 C 57.907 51.738 59.431 52.618 61.081 52.618 Z M 43.536 48 C 43.536 44.447 39.689 42.225 36.61 44.001 C 35.182 44.827 34.302 46.351 34.302 48 C 34.302 51.554 38.149 53.776 41.227 51.999 C 42.656 51.174 43.536 49.65 43.536 48 Z M 59.234 62.775 C 58.218 62.775 57.387 63.605 57.387 64.622 C 57.387 65.637 58.218 66.469 59.234 66.469 L 62.928 66.469 C 63.944 66.469 64.774 65.637 64.774 64.622 C 64.774 63.605 63.944 62.775 62.928 62.775 L 59.234 62.775 Z M 48.153 62.775 C 47.137 62.775 46.307 63.605 46.307 64.622 C 46.307 65.637 47.137 66.469 48.153 66.469 L 51.846000000000004 66.469 C 52.862 66.469 53.694 65.637 53.694 64.622 C 53.694 63.605 52.862 62.775 51.846000000000004 62.775 L 48.153 62.775 Z M 37.072 62.775 C 36.056 62.775 35.225 63.605 35.225 64.622 C 35.225 65.637 36.056 66.469 37.072 66.469 L 40.766 66.469 C 41.782 66.469 42.612 65.637 42.612 64.622 C 42.612 63.605 41.782 62.775 40.766 62.775 L 37.072 62.775 Z" style="text-wrap-mode: nowrap; filter: url(&quot;#outline-filter-0&quot;); stroke-width: 1.54496px; fill: rgb(255, 255, 255); stroke: rgb(0, 0, 0);"/>
      </g>
    </g>
    <g transform="matrix(1, 0, 0, 1, 0, 416)">
      <title>heart-icon_body-overlay</title>
      <rect width="128" height="256" style="fill: none; stroke: rgb(0, 0, 0); transform-origin: 192px 672px;" y="544" x="128">
        <title>front</title>
      </rect>
      <g style="filter: none;" transform="matrix(1.29453, 0, 0, 1.29453, 127.089, 593.608)">
        <title>_heart-icon</title>
        <path d="M 47.278 64.513 L 47.036 64.273 L 30.078 47.397 C 27.107 44.44 25.423 40.29 25.423 35.945 L 25.423 35.605 C 25.423 28.302 30.263 22.036 36.96 20.664 C 40.773 19.877 44.675 20.824 47.781 23.164 C 48.652 23.829 49.465 24.6 50.201 25.478 C 50.608 24.983 51.043 24.526 51.508 24.1 C 51.866 23.771 52.234 23.456 52.62 23.164 C 52.62 23.164 52.62 23.164 52.62 23.164 C 55.728 20.824 59.629 19.877 63.442 20.653 C 70.14 22.025 74.979 28.302 74.979 35.605 L 74.979 35.945 C 74.979 40.29 73.295 44.44 70.324 47.397 L 53.366 64.273 L 53.124 64.513 C 52.33 65.3 51.285 65.747 50.201 65.747 C 49.117 65.747 48.072 65.311 47.278 64.513 Z" style="stroke-width: 2.31744px; stroke: rgb(255, 255, 255); fill: rgb(255, 136, 136);"/>
      </g>
    </g>
    <g transform="matrix(1, 0, 0, 1, 128, 416)">
      <title>plus-icon_body-overlay</title>
      <rect width="128" height="256" style="fill: none; stroke: rgb(0, 0, 0); transform-origin: 192px 672px;" y="544" x="128">
        <title>front</title>
      </rect>
      <g id="SVGRepo_iconCarrier" transform="matrix(3.55555, 0, 0, 3.55555, 149.333, 604.958)" style="">
        <title>icon/24/health</title>
        <desc>Created with Sketch.</desc>
        <path d="M 19 3 L 5 3 C 3.9 3 3.01 3.9 3.01 5 L 3 19 C 3 20.1 3.9 21 5 21 L 19 21 C 20.1 21 21 20.1 21 19 L 21 5 C 21 3.9 20.1 3 19 3 Z" id="path-1" transform="matrix(1, 0, 0, 1, 0, 0.001)" style="stroke: rgb(255, 255, 255); stroke-width: 1.6875px; fill: rgb(0, 255, 0);"/>
        <path d="M19,3 L5,3 C3.9,3 3.01,3.9 3.01,5 L3,19 C3,20.1 3.9,21 5,21 L19,21 C20.1,21 21,20.1 21,19 L21,5 C21,3.9 20.1,3 19,3 L19,3 Z M18,14 L14,14 L14,18 L10,18 L10,14 L6,14 L6,10 L10,10 L10,6 L14,6 L14,10 L18,10 L18,14 L18,14 Z" id="path" fill="#000000"/>
      </g>
    </g>
  </g>
  <ellipse style="fill: none; stroke: rgb(255, 255, 255); stroke-width: 4px;" cx="992" cy="65.064" rx="48" ry="44.936"/>
  <ellipse style="fill: none; stroke: rgb(255, 255, 255); stroke-width: 4px;" cx="862" cy="188.936" rx="48" ry="44.936"/>
  <ellipse style="fill: none; stroke: rgb(255, 255, 255); stroke-width: 4px;" cx="1122" cy="188.936" rx="48" ry="44.936"/>
</svg>