<?xml version="1.0" encoding="utf-8"?>
<svg width="128" height="128" xmlns="http://www.w3.org/2000/svg" viewBox="0 0 128 128">
        <path style="stroke-width: 4px; stroke: rgb(255, 255, 255);" d="M 22.6666 22.6668 C 22.6666 15.0675 28.8451 8.889 36.4445 8.889 L 91.5555 8.889 C 99.155 8.889 105.334 15.0675 105.334 22.6668 L 105.334 105.334 L 119.111 105.334 C 122.921 105.334 126 108.412 126 112.223 C 126 116.033 122.921 119.111 119.111 119.111 L 95 119.111 L 33 119.111 L 8.88889 119.111 C 5.07848 119.111 2 116.033 2 112.223 C 2 108.412 5.07848 105.334 8.88889 105.334 L 22.6666 105.334 L 22.6666 22.6668 Z M 84.6666 70.889 C 89.9694 70.889 93.2838 65.1482 90.6325 60.5556 C 89.4019 58.4243 87.1278 57.1112 84.6666 57.1112 C 79.3636 57.1112 76.0492 62.852 78.7007 67.4445 C 79.9313 69.576 82.2055 70.889 84.6666 70.889 Z"/>
</svg>