<?xml version="1.0" encoding="utf-8"?>
<svg width="128" height="128" xmlns="http://www.w3.org/2000/svg" viewBox="0 0 128 128">
        <path style="stroke: rgb(255, 255, 255); stroke-width: 4px;" d="M 77.7778 39.889 C 77.7778 30.3737 85.4847 22.6668 95 22.6668 C 104.515 22.6668 112.222 30.3737 112.222 39.889 L 112.222 50.2224 C 112.222 54.0328 115.301 57.1112 119.111 57.1112 C 122.921 57.1112 126 54.0328 126 50.2224 L 126 39.889 C 126 22.7744 112.115 8.889 95 8.889 C 77.8854 8.889 64 22.7744 64 39.889 L 64 50.2224 L 15.7778 50.2224 C 8.17847 50.2224 2 56.4008 2 64.0001 L 2 105.334 C 2 112.933 8.17847 119.111 15.7778 119.111 L 84.6666 119.111 C 92.266 119.111 98.4445 112.933 98.4445 105.334 L 98.4445 64.0001 C 98.4445 56.4008 92.266 50.2224 84.6666 50.2224 L 77.7778 50.2224 L 77.7778 39.889 Z"/>
</svg>