<?xml version="1.0" encoding="utf-8"?>
<svg viewBox="0 0 84 120" style="filter: none;" xmlns="http://www.w3.org/2000/svg" xmlns:bx="https://boxy-svg.com">
  <defs>
    <bx:grid x="0" y="0" width="300" height="300"/>
  </defs>
  <path class="cls-1" d="M 83.781177 27.501915 C 83.492625 28.017573 56.53684 1.669119 56.53684 1.669119 C 56.53684 0.386143 57.882956 -0.415714 58.959849 0.225773 C 59.459634 0.523489 59.767518 1.073687 59.767518 1.669119 L 82.382253 25.001967 C 83.625741 25.001967 84.402921 26.390826 83.781177 27.501915 Z M 74.305562 119.999993 L 9.69203 119.999993 C 4.339269 119.999993 0 115.522934 0 110.000201 L 0 10.002279 C 0 4.479546 4.339269 0.002485 9.69203 0.002485 L 58.152178 0.002485 C 58.580886 0.001695 58.992314 0.17677 59.295839 0.489143 L 83.525912 25.488623 C 83.828673 25.801787 83.998356 26.226278 83.997592 26.668599 L 83.997592 110.000201 C 83.997592 115.522934 79.658323 119.999993 74.305562 119.999993 Z" style="">
    <title>bg</title>
  </path>
  <g transform="matrix(1.999942779541, 0, 0, 1.999958395958, 0.000001612912, 0.002483361633)" style="">
    <title>lines</title>
    <path class="cls-1" d="M 41.192304 14.166668 L 29.07692 14.166668 C 28.630844 14.166668 28.269228 13.793572 28.269228 13.333335 L 28.269228 0.833335 C 28.269228 0.191834 28.942305 -0.209103 29.480767 0.111647 C 29.730667 0.260508 29.884613 0.535613 29.884613 0.833335 L 29.884613 12.500002 L 41.192304 12.500002 C 41.814066 12.500002 42.202667 13.194446 41.891786 13.750002 C 41.747506 14.007836 41.480865 14.166668 41.192304 14.166668 Z" style="fill: rgb(221, 221, 221);"/>
    <path class="cls-1" d="M 37.153843 60.000003 L 4.846153 60.000003 C 2.169696 60.000003 -0.000001 57.761427 -0.000001 55.000003 L -0.000001 5.000002 C -0.000001 2.238578 2.169696 0.000001 4.846153 0.000001 L 29.07692 0.000001 C 29.29128 -0.000394 29.497 0.087145 29.648767 0.243335 L 41.76415 12.743335 C 41.915535 12.89992 42.000379 13.11217 41.999997 13.333335 L 41.999997 55.000003 C 41.999997 57.761427 39.8303 60.000003 37.153843 60.000003 Z M 4.846153 1.666668 C 3.061848 1.666668 1.615384 3.159052 1.615384 5.000002 L 1.615384 55.000003 C 1.615384 56.840952 3.061848 58.333336 4.846153 58.333336 L 37.153843 58.333336 C 38.938148 58.333336 40.384612 56.840952 40.384612 55.000003 L 40.384612 13.678335 L 28.742536 1.666668 L 4.846153 1.666668 Z" style="fill: rgb(221, 221, 221);"/>
    <path class="cls-1" d="M 33.11538 27.66667 L 8.88461 27.66667 C 8.29051 27.57873 7.55654 27.17449 7.31247 26.73833 C 7.07068 26.30624 7.09432 25.48131 7.31247 24.92834 C 7.6372 24.48511 8.34017 24.07044 8.88461 24 L 33.11538 24 C 33.70948 24.08794 34.44345 24.49218 34.68752 24.92834 C 34.92931 25.36043 34.90567 26.18536 34.68752 26.73833 C 34.36279 27.18156 33.65982 27.59623 33.11538 27.66667 Z" style="fill: rgb(255, 255, 255);"/>
    <path class="cls-1" d="M 33.11538 36 L 8.88461 36 C 8.29051 35.91206 7.55654 35.50782 7.31247 35.07166 C 7.07068 34.63957 7.09432 33.81464 7.31247 33.26167 C 7.6372 32.81844 8.34017 32.40377 8.88461 32.33333 L 33.11538 32.33333 C 33.70948 32.42127 34.44345 32.82551 34.68752 33.26167 C 34.92931 33.69376 34.90567 34.51869 34.68752 35.07166 C 34.36279 35.51489 33.65982 35.92956 33.11538 36 Z" style="fill: rgb(255, 255, 255);"/>
    <path class="cls-1" d="M 33.11538 44.33334 L 8.88461 44.33334 C 8.29051 44.2454 7.55654 43.84116 7.31247 43.405 C 7.07068 42.97291 7.09432 42.14798 7.31247 41.59501 C 7.6372 41.15178 8.34017 40.73711 8.88461 40.66667 L 33.11538 40.66667 C 33.70948 40.75461 34.44345 41.15885 34.68752 41.59501 C 34.92931 42.0271 34.90567 42.85203 34.68752 43.405 C 34.36279 43.84823 33.65982 44.2629 33.11538 44.33334 Z" style="fill: rgb(255, 255, 255);"/>
    <path class="cls-1" d="M 21 52.66667 L 8.88462 52.66667 C 8.29052 52.57873 7.55655 52.17449 7.31248 51.73833 C 7.07069 51.30624 7.09433 50.48131 7.31248 49.92834 C 7.63721 49.48511 8.34018 49.07044 8.88462 49 L 21 49 C 21.5941 49.08794 22.32807 49.49218 22.57214 49.92834 C 22.81393 50.36043 22.79029 51.18536 22.57214 51.73833 C 22.24741 52.18156 21.54444 52.59623 21 52.66667 Z" style="fill: rgb(255, 255, 255);"/>
  </g>
</svg>