<?xml version="1.0" encoding="utf-8"?>
<svg width="100" height="100" viewBox="0 0 100 100" style="filter: none;" xmlns="http://www.w3.org/2000/svg" xmlns:bx="https://boxy-svg.com">
  <defs>
    <bx:grid x="0" y="0" width="300" height="300"/>
  </defs>
  <g style="filter: none;" transform="matrix(1.29453, 0, 0, 1.29453, -14.7265, -12.1381)">
    <path d="M 50 18.451 C 52.043 18.451 53.694 20.101 53.694 22.145 L 53.694 29.532 L 67.545 29.532 C 72.139 29.532 75.856 33.249 75.856 37.843 L 75.856 69.239 C 75.856 73.834 72.139 77.55 67.545 77.55 L 32.455 77.55 C 27.861 77.55 24.144 73.834 24.144 69.239 L 24.144 37.843 C 24.144 33.249 27.861 29.532 32.455 29.532 L 46.307 29.532 L 46.307 22.145 C 46.307 20.101 47.957 18.451 50 18.451 Z M 37.072 62.775 C 36.056 62.775 35.225 63.605 35.225 64.622 C 35.225 65.637 36.056 66.469 37.072 66.469 L 40.766 66.469 C 41.782 66.469 42.612 65.637 42.612 64.622 C 42.612 63.605 41.782 62.775 40.766 62.775 L 37.072 62.775 Z M 48.153 62.775 C 47.137 62.775 46.307 63.605 46.307 64.622 C 46.307 65.637 47.137 66.469 48.153 66.469 L 51.846 66.469 C 52.862 66.469 53.694 65.637 53.694 64.622 C 53.694 63.605 52.862 62.775 51.846 62.775 L 48.153 62.775 Z M 59.234 62.775 C 58.218 62.775 57.387 63.605 57.387 64.622 C 57.387 65.637 58.218 66.469 59.234 66.469 L 62.928 66.469 C 63.944 66.469 64.774 65.637 64.774 64.622 C 64.774 63.605 63.944 62.775 62.928 62.775 L 59.234 62.775 Z M 43.536 48 C 43.536 44.447 39.689 42.225 36.61 44.001 C 35.182 44.827 34.302 46.351 34.302 48 C 34.302 51.554 38.149 53.776 41.227 51.999 C 42.656 51.174 43.536 49.65 43.536 48 Z M 61.081 52.618 C 64.635 52.618 66.857 48.77 65.079 45.692 C 64.255 44.264 62.731 43.383 61.081 43.383 C 57.527 43.383 55.306 47.231 57.082 50.309 C 57.907 51.738 59.431 52.618 61.081 52.618 Z M 18.604 44.307 L 20.45 44.307 L 20.45 66.469 L 18.604 66.469 C 15.544 66.469 13.063 63.986 13.063 60.929 L 13.063 49.847 C 13.063 46.788 15.544 44.307 18.604 44.307 Z M 81.396 44.307 C 84.455 44.307 86.937 46.788 86.937 49.847 L 86.937 60.929 C 86.937 63.986 84.455 66.469 81.396 66.469 L 79.549 66.469 L 79.549 44.307 L 81.396 44.307 Z" style="text-wrap-mode: nowrap; filter: url(&quot;#outline-filter-0&quot;); stroke: rgb(255, 255, 255); stroke-width: 1.54496px;"/>
  </g>
</svg>