<?xml version="1.0" encoding="utf-8"?>
<svg width="120" height="80" viewBox="0 0 120 80" style="filter: none;" xmlns="http://www.w3.org/2000/svg" xmlns:bx="https://boxy-svg.com">
  <defs>
    <bx:grid x="0" y="0" width="300" height="300"/>
  </defs>
  <path d="M 15.125213 5.007065 C 15.526243 5.005845 15.927273 5.004085 16.328303 5.001855 C 17.424433 4.997285 110.290643 5.276175 112.479653 7.341685 C 115.813403 11.025465 114.879633 33.528005 114.879633 39.217335 C 114.850123 39.217335 114.820623 39.217335 114.791113 39.217335 L 114.544063 67.244995 C 114.297553 70.679035 113.869963 71.271235 113.128273 72.298445 C 112.436303 72.946815 111.755773 73.474225 111.045453 73.885165 C 109.697483 74.327595 108.164333 74.770785 106.854973 74.995885 C 106.779993 74.997445 106.704373 74.998325 106.628073 74.998505 C 106.503593 74.999045 13.099803 74.997445 13.024833 74.995885 C 11.715473 74.770785 10.182333 74.327595 8.834363 73.885165 C 8.124043 73.474225 7.443513 72.946815 6.751543 72.298445 C 6.009853 71.271235 5.582263 70.679035 5.335753 67.244995 L 5.088703 39.217335 C 5.059133 39.217335 5.029573 39.217335 5.000003 39.217335 C 5.000003 37.218025 5.000003 34.701825 5.024733 31.960345 L 5.000183 29.174815 C 5.000183 29.168175 5.000183 29.161535 5.000183 29.154895 C 5.019663 29.154895 5.039143 29.154895 5.058623 29.154895 C 5.201363 19.871465 5.691683 9.237765 7.376033 7.234695 C 9.674733 5.179215 12.157113 4.983085 15.125243 5.007065 L 15.125213 5.007065 Z" style="fill: rgb(255, 255, 255); stroke: rgb(221, 221, 221); stroke-width: 8px;">
    <title>bg</title>
  </path>
  <path d="M 106.628063 74.99851 C 106.503588 74.999053 13.099796 74.997455 13.024818 74.99589 C 11.715462 74.770794 10.182314 74.327599 8.834343 73.885171 C 8.124018 73.474231 7.44349 72.946817 6.751518 72.298451 C 6.009829 71.27124 5.58224 70.679045 5.335731 67.245004 L 5.000159 29.174822 C 5.000159 29.168183 5.000159 29.161542 5.000159 29.154898 C 41.260381 29.154898 77.520603 29.154898 114.87962 29.154898 C 114.87962 29.161539 114.87962 29.168181 114.87962 29.174822 L 114.544046 67.245004 C 114.297538 70.679045 113.86995 71.27124 113.12826 72.298451 C 112.436288 72.946817 111.755761 73.474231 111.045435 73.885171 C 109.697467 74.327602 108.164315 74.770794 106.85496 74.99589 C 106.779982 74.997455 106.704358 74.998328 106.628063 74.99851 Z" fill="#000000" style="stroke-width: 4px;">
    <title>card-bottom</title>
  </path>
  <path d="M 15.125213 5.007068 C 15.526246 5.005843 15.927276 5.00409 16.328303 5.001857 C 17.424431 4.997287 102.600376 5.027077 103.672123 5.032676 C 104.058802 5.033923 104.445491 5.033556 104.832167 5.03137 C 107.743648 5.016276 110.290641 5.276183 112.479643 7.34169 C 115.813388 11.025471 114.87962 13.528013 114.87962 19.217339 C 78.619339 19.217339 42.35906 19.217339 4.999982 19.217339 C 4.999982 10.060323 4.999982 10.060323 7.376008 7.234702 C 9.674705 5.179223 12.157089 4.983089 15.125213 5.007068 Z" fill="#000000" style="stroke-width: 4px;">
    <title>card-top</title>
  </path>
  <path d="M 72.597032 37.104492 C 76.060313 36.960728 79.3781 38.168174 82.022385 40.358552 C 84.295939 42.534311 86.095217 45.589192 86.229318 48.768042 C 86.274442 52.318684 85.481785 55.585139 83.052718 58.313699 C 82.755784 58.612137 81.89251 59.450906 81.760875 59.582573 C 79.534494 61.682528 76.377975 62.598309 73.352505 62.647273 C 72.866314 62.630202 72.380305 62.605848 71.89496 62.57277 C 71.592138 62.555099 71.592138 62.555099 71.2832 62.537071 C 68.162256 62.195769 65.234755 60.219467 63.235289 57.910919 C 62.323163 56.724305 61.507274 55.508012 61.239803 54.029795 C 61.119287 54.032725 60.998768 54.035656 60.874599 54.038674 C 57.929338 54.109165 42.0654 54.365888 42.0654 54.365888 L 38.273936 54.361802 L 36.303304 53.300968 L 34.30035 50.851014 L 38.015873 46.046802 L 41.923093 46.03325 L 42.945101 48.268254 L 45.447721 46.03325 L 47.16905 46.03325 L 48.976321 48.06958 L 51.513359 46.03325 L 53.234688 46.03325 C 53.234688 46.03325 54.806501 48.133155 54.806501 48.268254 C 54.939187 48.268254 55.071874 48.268254 55.208583 48.268254 C 55.293082 48.100547 56.816908 45.685494 56.816908 45.685494 C 56.816908 45.685494 60.848775 45.656814 61.239803 45.685494 C 61.294225 45.511856 61.348648 45.338218 61.404719 45.159319 C 62.475582 42.152749 64.754389 39.897258 67.579653 38.457957 C 69.217178 37.700829 70.795478 37.241228 72.597032 37.104492 Z" style="fill: rgb(255, 255, 255);">
    <title>key</title>
  </path>
  <path d="M 80.769019 46.814672 C 81.629912 47.260395 82.127291 47.813837 82.550113 48.665598 C 82.824509 49.614675 82.851602 50.389501 82.437027 51.298026 C 81.890715 52.237193 81.192288 52.887681 80.137625 53.235097 C 79.065041 53.360401 78.151662 53.317424 77.237456 52.715129 C 76.478682 52.05646 76.002449 51.337905 75.826245 50.348118 C 75.775041 49.228146 75.95034 48.535536 76.719933 47.672229 C 77.92929 46.619386 79.183543 46.314322 80.769019 46.814672 Z" fill="#030303" style="">
    <title>key-hole</title>
  </path>
</svg>