<?xml version="1.0" encoding="utf-8"?>
<svg width="128" height="128" xmlns="http://www.w3.org/2000/svg" viewBox="0 0 128 128">
        <path style="stroke: rgb(255, 255, 255); stroke-width: 4px;" d="M 70.8889 15.7725 C 70.8889 13.6412 69.9201 11.6391 68.2409 10.3475 C 66.5618 9.05579 64.3875 8.5822 62.3208 9.09885 L 23.5924 18.7864 C 19.007 19.9274 15.7778 24.0607 15.7778 28.7969 L 15.7778 105.328 L 8.88889 105.328 C 5.07848 105.328 2 108.406 2 112.216 C 2 116.027 5.07848 119.106 8.88889 119.106 L 22.6667 119.106 L 64 119.106 L 70.8889 119.106 L 70.8889 112.216 L 70.8889 15.7725 Z M 57.1111 63.9947 C 57.1111 67.8051 54.8076 70.8836 51.9444 70.8836 C 49.0813 70.8836 46.7778 67.8051 46.7778 63.9947 C 46.7778 60.1844 49.0813 57.1059 51.9444 57.1059 C 54.8076 57.1059 57.1111 60.1844 57.1111 63.9947 Z M 77.7778 36.4391 L 98.4444 36.4391 L 98.4444 112.216 C 98.4444 116.027 101.523 119.106 105.334 119.106 L 119.111 119.106 C 122.922 119.106 126 116.027 126 112.216 C 126 108.406 122.922 105.328 119.111 105.328 L 112.222 105.328 L 112.222 36.4391 C 112.222 28.8399 106.044 22.6615 98.4444 22.6615 L 77.7778 22.6615 L 77.7778 36.4391 Z"/>
</svg>