<?xml version="1.0" encoding="utf-8"?>
<svg xmlns="http://www.w3.org/2000/svg" viewBox="0 0 128 128">
        <path style="stroke-width: 4px; stroke: rgb(255, 255, 255);" d="M 44.625 36.875 L 44.625 48.5 L 83.375 48.5 L 83.375 36.875 C 83.375 26.1703 74.7047 17.5 64 17.5 C 53.2953 17.5 44.625 26.1703 44.625 36.875 Z M 29.125 48.5 L 29.125 36.875 C 29.125 17.6211 44.7461 2 64 2 C 83.2539 2 98.875 17.6211 98.875 36.875 L 98.875 48.5 L 102.75 48.5 C 111.299 48.5 118.25 55.4508 118.25 64 L 118.25 110.5 C 118.25 119.049 111.299 126 102.75 126 L 25.25 126 C 16.7008 126 9.75 119.049 9.75 110.5 L 9.75 64 C 9.75 55.4508 16.7008 48.5 25.25 48.5 L 29.125 48.5 Z"/>
</svg>