<?xml version="1.0" encoding="utf-8"?>
<svg viewBox="-0 0 1200 600" xmlns="http://www.w3.org/2000/svg" xmlns:bx="https://boxy-svg.com">
  <defs>
    <bx:grid x="0" y="0" width="60" height="60"/>
    <pattern x="0" y="0" width="600" height="600" patternUnits="userSpaceOnUse" viewBox="0 0 600 600" id="pattern-0" bx:pinned="true">
      <title>geomorph-rect-pattern</title>
      <rect width="600" height="599.999939" style="stroke: rgb(0, 0, 0); fill: rgb(255, 255, 255);"/>
      <rect width="299.986328" height="39.998177" style="stroke: rgb(0, 0, 0); fill: rgb(102, 102, 102); fill-opacity: 0.5;" y="-20.001369" x="-1.106096"/>
      <path d="M 298.88023 -50.000001 L 398.87567 -0.002282 L 298.88023 49.995439 L 298.88023 -50.000001 Z" style="stroke: rgb(0, 0, 0); fill: rgb(102, 102, 102); fill-opacity: 0.5;"/>
      <rect width="299.986328" height="39.998177" style="stroke: rgb(0, 0, 0); fill: rgb(102, 102, 102); fill-opacity: 0.5;" y="579.971325" x="-1.106096"/>
      <path d="M 298.88023 549.972642 L 398.87567 599.970363 L 298.88023 649.968082 L 298.88023 549.972642 Z" style="stroke: rgb(0, 0, 0); fill: rgb(102, 102, 102); fill-opacity: 0.5;"/>
      <rect width="299.986328" height="39.998177" style="stroke: rgb(0, 0, 0); transform-origin: 154.988px -0.002563px; fill: rgb(102, 102, 102); fill-opacity: 0.5;" y="-19.999088" x="4.999772" transform="matrix(0, -1, -1, 0, -156.243870581035, 449.439055596944)"/>
      <path d="M -50.000112 299.815664 L 49.99533 249.817943 L -50.000112 199.820223 L -50.000112 299.815664 Z" style="stroke: rgb(0, 0, 0); transform-origin: -0.0024px 249.818px; fill: rgb(102, 102, 102); fill-opacity: 0.5;" transform="matrix(0, -1, 1, 0, -0.000003367036, 0.000008016941)"/>
      <rect width="299.986328" height="39.998177" style="stroke: rgb(0, 0, 0); transform-origin: 154.994px 0.000304px; fill: rgb(102, 102, 102); fill-opacity: 0.5;" y="-19.999088" x="4.999772" transform="matrix(0, -1, -1, 0, 443.723145898432, 449.433045800775)"/>
      <path d="M 549.972978 297.566399 L 649.968419 247.568679 L 549.972978 197.570959 L 549.972978 297.566399 Z" style="stroke: rgb(0, 0, 0); transform-origin: 599.971px 247.569px; fill: rgb(102, 102, 102); fill-opacity: 0.5;" transform="matrix(0, -1, 1, 0, -0.000007147929, 0.000007233384)"/>
    </pattern>
    <pattern id="pattern-0-0" href="#pattern-0" patternTransform="matrix(1, 0, 0, 1, 0, 600)"/>
    <pattern id="pattern-1" patternTransform="matrix(1, 0, 0, 1, 1, 0)" href="#pattern-0"/>
    <pattern id="pattern-2" patternTransform="matrix(1, 0, 0, 1, 4.76837e-7, -2400)" href="#pattern-3"/>
    <pattern x="0" y="0" width="600" height="600" patternUnits="userSpaceOnUse" viewBox="0 0 600 600" id="pattern-3">
      <title>geomorph-rect-pattern</title>
      <rect width="600" height="599.999939" style="stroke: rgb(0, 0, 0); fill: rgb(255, 255, 255);"/>
      <rect width="299.986328" height="39.998177" style="stroke: rgb(0, 0, 0); fill: rgb(102, 102, 102); fill-opacity: 0.5;" y="-20.001369" x="-1.106096"/>
      <path d="M 298.88023 -50.000001 L 398.87567 -0.002282 L 298.88023 49.995439 L 298.88023 -50.000001 Z" style="stroke: rgb(0, 0, 0); fill: rgb(102, 102, 102); fill-opacity: 0.5;"/>
      <rect width="299.986328" height="39.998177" style="stroke: rgb(0, 0, 0); fill: rgb(102, 102, 102); fill-opacity: 0.5;" y="579.971325" x="-1.106096"/>
      <path d="M 298.88023 549.972642 L 398.87567 599.970363 L 298.88023 649.968082 L 298.88023 549.972642 Z" style="stroke: rgb(0, 0, 0); fill: rgb(102, 102, 102); fill-opacity: 0.5;"/>
      <rect width="299.986328" height="39.998177" style="stroke: rgb(0, 0, 0); transform-origin: 154.988px -0.002563px; fill: rgb(102, 102, 102); fill-opacity: 0.5;" y="-19.999088" x="4.999772" transform="matrix(0, -1, -1, 0, -156.243870581035, 449.439055596944)"/>
      <path d="M -50.000112 299.815664 L 49.99533 249.817943 L -50.000112 199.820223 L -50.000112 299.815664 Z" style="stroke: rgb(0, 0, 0); transform-origin: -0.0024px 249.818px; fill: rgb(102, 102, 102); fill-opacity: 0.5;" transform="matrix(0, -1, 1, 0, -0.000003367036, 0.000008016941)"/>
      <rect width="299.986328" height="39.998177" style="stroke: rgb(0, 0, 0); transform-origin: 154.994px 0.000304px; fill: rgb(102, 102, 102); fill-opacity: 0.5;" y="-19.999088" x="4.999772" transform="matrix(0, -1, -1, 0, 443.723145898432, 449.433045800775)"/>
      <path d="M 549.972978 297.566399 L 649.968419 247.568679 L 549.972978 197.570959 L 549.972978 297.566399 Z" style="stroke: rgb(0, 0, 0); transform-origin: 599.971px 247.569px; fill: rgb(102, 102, 102); fill-opacity: 0.5;" transform="matrix(0, -1, 1, 0, -0.000007147929, 0.000007233384)"/>
    </pattern>
  </defs>
  <rect width="1200" height="600" style="stroke-width: 16px; stroke: rgb(0, 0, 0); fill: url(&quot;#pattern-1&quot;);" x="1">
    <title>301</title>
  </rect>
  <rect width="1200" height="600" style="stroke-width: 16px; stroke: rgb(0, 0, 0); fill: url(&quot;#pattern-2&quot;);" y="-2400" transform="matrix(1, 0, 0, -1, 0, 0)">
    <title>301</title>
  </rect>
  <rect width="1200" height="1200" style="fill: url(&quot;#pattern-0-0&quot;); stroke-width: 16px; stroke: rgb(0, 0, 0);" y="600">
    <title>101</title>
  </rect>
</svg>